# xmcd
#
# Track frame offsets:
#	150
#	52352
#	86479
#	117802
#	150169
#	200977
#	230046
#	236778
#
# Disc length: 3464 seconds
#
# Revision: 0
# Processed by: cddbd v1.5.2PL0 Copyright (c) Steve Scherf et al.
# Submitted via: dBpowerAMP V4.0
#
DISCID=6c0d8608
DTITLE=C.S. Forester - African Queen
DYEAR=2007
DGENRE=Lesung
TTITLE0=CD4 01 Endlich auf dem See
TTITLE1=CD4 02 Aufopfernde Abmachungen
TTITLE2=CD4 03 Aufrüstung der African Queen
TTITLE3=CD4 04 Der Angriff
TTITLE4=CD4 05 Die Gerichtsverhandlung
TTITLE5=CD4 06 Die Auslieferung
TTITLE6=CD4 07 Das Ender der Königin Luise
TTITLE7=CD4 08 Wahrscheinlich das Happy End
EXTD=
EXTT0=
EXTT1=
EXTT2=
EXTT3=
EXTT4=
EXTT5=
EXTT6=
EXTT7=
PLAYORDER=
